<svg width="800" height="360" viewBox="0 0 800 360" fill="none" xmlns="http://www.w3.org/2000/svg">
<g clip-path="url(#clip0_11_13)">
<rect width="800" height="360" fill="#5522BD"/>
<path d="M764.96 152.306H720.17C719.817 152.855 719.397 153.359 718.92 153.806C718.263 154.417 717.516 154.923 716.705 155.306H710.82C710.138 155.091 709.503 154.752 708.945 154.306C708.285 153.776 707.769 153.088 707.445 152.306H705.54C703.595 152.306 702 153.741 702 155.506V167.11C702 168.87 703.595 170.305 705.54 170.305H764.96C766.905 170.305 768.5 168.87 768.5 167.11V155.506C768.5 153.741 766.905 152.306 764.96 152.306Z" fill="#6F32EC"/>
<path d="M708.44 170.305H719.94C719.628 170.849 719.25 171.353 718.815 171.805C718.232 172.408 717.557 172.914 716.815 173.305H711.5C710.874 173.087 710.298 172.747 709.805 172.305C709.196 171.758 708.728 171.072 708.44 170.305V170.305Z" fill="#6F32EC"/>
<path d="M738.19 152.306C735.835 150.077 733.035 148.37 729.975 147.299C726.914 146.228 723.661 145.817 720.43 146.091C717.132 145.781 713.807 146.263 710.732 147.496C707.657 148.729 704.921 150.678 702.75 153.181C707.505 157.014 713.394 159.167 719.5 159.306C729.8 159.476 736.635 153.696 738.19 152.306Z" fill="#6F32EC"/>
<path d="M738.19 152.306C735.835 150.077 733.035 148.37 729.975 147.299C726.914 146.228 723.661 145.817 720.43 146.091C717.132 145.781 713.807 146.263 710.732 147.496C707.657 148.729 704.921 150.678 702.75 153.181C707.505 157.014 713.394 159.167 719.5 159.306C729.8 159.476 736.635 153.696 738.19 152.306Z" fill="#6F32EC"/>
<path d="M483.96 152.306H439.17C438.817 152.855 438.397 153.359 437.92 153.806C437.263 154.417 436.516 154.923 435.705 155.306H429.82C429.138 155.091 428.503 154.752 427.945 154.306C427.285 153.776 426.769 153.088 426.445 152.306H424.54C422.595 152.306 421 153.741 421 155.506V167.11C421 168.87 422.595 170.305 424.54 170.305H483.96C485.905 170.305 487.5 168.87 487.5 167.11V155.506C487.5 153.741 485.905 152.306 483.96 152.306Z" fill="#6F32EC"/>
<path d="M427.44 170.305H438.94C438.628 170.849 438.25 171.353 437.815 171.805C437.232 172.408 436.557 172.914 435.815 173.305H430.5C429.874 173.087 429.298 172.747 428.805 172.305C428.196 171.758 427.728 171.072 427.44 170.305V170.305Z" fill="#6F32EC"/>
<path d="M457.19 152.306C454.835 150.077 452.035 148.37 448.975 147.299C445.914 146.228 442.661 145.817 439.43 146.091C436.132 145.781 432.807 146.263 429.732 147.496C426.657 148.729 423.921 150.678 421.75 153.181C426.505 157.014 432.394 159.167 438.5 159.306C448.8 159.476 455.635 153.696 457.19 152.306Z" fill="#6F32EC"/>
<path d="M718.825 57H730.325C729.586 58.2757 728.501 59.3159 727.195 60H721.88C721.18 59.7574 720.543 59.3624 720.015 58.8436C719.487 58.3247 719.08 57.6951 718.825 57V57Z" fill="#6F32EC"/>
<path d="M764.805 39H724.395C724.079 39.543 723.7 40.0465 723.265 40.5C722.683 41.1036 722.008 41.61 721.265 42H715.96C715.335 41.7809 714.759 41.4412 714.265 41C713.657 40.4525 713.191 39.7664 712.905 39H711.195C710.348 39.0013 709.536 39.3384 708.937 39.9373C708.338 40.5361 708.001 41.348 708 42.195V53.805C708.001 54.652 708.338 55.4639 708.937 56.0627C709.536 56.6616 710.348 56.9987 711.195 57H764.805C765.652 56.9987 766.464 56.6616 767.063 56.0627C767.662 55.4639 767.999 54.652 768 53.805V42.195C767.999 41.348 767.662 40.5361 767.063 39.9373C766.464 39.3384 765.652 39.0013 764.805 39V39Z" fill="#6F32EC"/>
<path d="M765.6 66H728.89C728.594 66.377 728.249 66.7133 727.865 67C727.311 67.4187 726.7 67.7555 726.05 68H721.23C720.684 67.8642 720.163 67.6395 719.69 67.335C719.168 67.0066 718.742 66.546 718.455 66H716.9C715.305 66 714 66.96 714 68.13V75.87C714 77.04 715.305 78 716.9 78H765.6C767.195 78 768.5 77.04 768.5 75.87V68.13C768.5 66.96 767.195 66 765.6 66Z" fill="#6F32EC"/>
<path d="M712.825 78H724.325C723.586 79.2757 722.501 80.3159 721.195 81H715.88C715.18 80.7574 714.543 80.3624 714.015 79.8436C713.487 79.3247 713.08 78.6951 712.825 78Z" fill="#6F32EC"/>
<path d="M711.555 39H709.445C708.095 39 707 40.0947 707 41.445V76.055C707 77.4053 708.095 78.5 709.445 78.5H711.555C712.905 78.5 714 77.4053 714 76.055V41.445C714 40.0947 712.905 39 711.555 39Z" fill="#6F32EC"/>
<path d="M716 66H712.5C711.948 66 711.5 66.4477 711.5 67C711.5 67.5523 711.948 68 712.5 68H716C716.552 68 717 67.5523 717 67C717 66.4477 716.552 66 716 66Z" fill="#6F32EC"/>
<path d="M715.25 76H711.75C711.06 76 710.5 76.5596 710.5 77.25C710.5 77.9404 711.06 78.5 711.75 78.5H715.25C715.94 78.5 716.5 77.9404 716.5 77.25C716.5 76.5596 715.94 76 715.25 76Z" fill="#6F32EC"/>
<path d="M438.825 53H450.325C449.586 54.2757 448.501 55.3159 447.195 56H441.88C441.18 55.7574 440.543 55.3624 440.015 54.8436C439.487 54.3247 439.08 53.6951 438.825 53V53Z" fill="#6F32EC"/>
<path d="M484.805 35H444.395C444.079 35.543 443.7 36.0465 443.265 36.5C442.683 37.1036 442.008 37.61 441.265 38H435.96C435.335 37.7809 434.759 37.4412 434.265 37C433.657 36.4525 433.191 35.7664 432.905 35H431.195C430.348 35.0013 429.536 35.3384 428.937 35.9373C428.338 36.5361 428.001 37.348 428 38.195V49.805C428.001 50.652 428.338 51.4639 428.937 52.0627C429.536 52.6616 430.348 52.9987 431.195 53H484.805C485.652 52.9987 486.464 52.6616 487.063 52.0627C487.662 51.4639 487.999 50.652 488 49.805V38.195C487.999 37.348 487.662 36.5361 487.063 35.9373C486.464 35.3384 485.652 35.0013 484.805 35V35Z" fill="#6F32EC"/>
<path d="M485.6 62H448.89C448.594 62.377 448.249 62.7133 447.865 63C447.311 63.4187 446.7 63.7555 446.05 64H441.23C440.684 63.8642 440.163 63.6395 439.69 63.335C439.168 63.0066 438.742 62.546 438.455 62H436.9C435.305 62 434 62.96 434 64.13V71.87C434 73.04 435.305 74 436.9 74H485.6C487.195 74 488.5 73.04 488.5 71.87V64.13C488.5 62.96 487.195 62 485.6 62Z" fill="#6F32EC"/>
<path d="M432.825 74H444.325C443.586 75.2757 442.501 76.3159 441.195 77H435.88C435.18 76.7574 434.543 76.3624 434.015 75.8436C433.487 75.3247 433.08 74.6951 432.825 74Z" fill="#6F32EC"/>
<path d="M431.555 35H429.445C428.095 35 427 36.0947 427 37.445V72.055C427 73.4053 428.095 74.5 429.445 74.5H431.555C432.905 74.5 434 73.4053 434 72.055V37.445C434 36.0947 432.905 35 431.555 35Z" fill="#6F32EC"/>
<path d="M436 62H432.5C431.948 62 431.5 62.4477 431.5 63C431.5 63.5523 431.948 64 432.5 64H436C436.552 64 437 63.5523 437 63C437 62.4477 436.552 62 436 62Z" fill="#6F32EC"/>
<path d="M435.25 72H431.75C431.06 72 430.5 72.5596 430.5 73.25C430.5 73.9404 431.06 74.5 431.75 74.5H435.25C435.94 74.5 436.5 73.9404 436.5 73.25C436.5 72.5596 435.94 72 435.25 72Z" fill="#6F32EC"/>
<path d="M595.945 164H607.445C606.706 165.276 605.621 166.316 604.315 167H599C598.3 166.757 597.663 166.362 597.135 165.844C596.607 165.325 596.2 164.695 595.945 164Z" fill="#6F32EC"/>
<path d="M640.805 146H600.395C600.079 146.543 599.7 147.047 599.265 147.5C598.683 148.104 598.008 148.61 597.265 149H591.96C591.335 148.781 590.759 148.441 590.265 148C589.657 147.453 589.191 146.766 588.905 146H587.195C586.348 146.001 585.536 146.338 584.937 146.937C584.338 147.536 584.001 148.348 584 149.195V160.805C584.001 161.652 584.338 162.464 584.937 163.063C585.536 163.662 586.348 163.999 587.195 164H640.805C641.652 163.999 642.464 163.662 643.063 163.063C643.662 162.464 643.999 161.652 644 160.805V149.195C643.999 148.348 643.662 147.536 643.063 146.937C642.464 146.338 641.652 146.001 640.805 146V146Z" fill="#6F32EC"/>
<path d="M641.6 177H604.89C604.594 177.377 604.249 177.713 603.865 178C603.311 178.419 602.7 178.755 602.05 179H597.23C596.684 178.864 596.163 178.639 595.69 178.335C595.168 178.007 594.742 177.546 594.455 177H592.9C591.305 177 590 177.96 590 179.13V186.87C590 188.04 591.305 189 592.9 189H641.6C643.195 189 644.5 188.04 644.5 186.87V179.13C644.5 177.96 643.195 177 641.6 177Z" fill="#6F32EC"/>
<path d="M588.825 189H600.325C599.586 190.276 598.501 191.316 597.195 192H591.88C591.18 191.757 590.543 191.362 590.015 190.844C589.487 190.325 589.08 189.695 588.825 189Z" fill="#6F32EC"/>
<path d="M587.555 150H585.445C584.095 150 583 151.095 583 152.445V187.055C583 188.405 584.095 189.5 585.445 189.5H587.555C588.905 189.5 590 188.405 590 187.055V152.445C590 151.095 588.905 150 587.555 150Z" fill="#6F32EC"/>
<path d="M592 177H588.5C587.948 177 587.5 177.448 587.5 178C587.5 178.552 587.948 179 588.5 179H592C592.552 179 593 178.552 593 178C593 177.448 592.552 177 592 177Z" fill="#6F32EC"/>
<path d="M591.25 187H587.75C587.06 187 586.5 187.56 586.5 188.25C586.5 188.94 587.06 189.5 587.75 189.5H591.25C591.94 189.5 592.5 188.94 592.5 188.25C592.5 187.56 591.94 187 591.25 187Z" fill="#6F32EC"/>
<path d="M718.825 291H730.325C729.586 292.276 728.501 293.316 727.195 294H721.88C721.18 293.757 720.543 293.362 720.015 292.844C719.487 292.325 719.08 291.695 718.825 291V291Z" fill="#6F32EC"/>
<path d="M764.805 273H724.395C724.079 273.543 723.7 274.047 723.265 274.5C722.683 275.104 722.008 275.61 721.265 276H715.96C715.335 275.781 714.759 275.441 714.265 275C713.657 274.453 713.191 273.766 712.905 273H711.195C710.348 273.001 709.536 273.338 708.937 273.937C708.338 274.536 708.001 275.348 708 276.195V287.805C708.001 288.652 708.338 289.464 708.937 290.063C709.536 290.662 710.348 290.999 711.195 291H764.805C765.652 290.999 766.464 290.662 767.063 290.063C767.662 289.464 767.999 288.652 768 287.805V276.195C767.999 275.348 767.662 274.536 767.063 273.937C766.464 273.338 765.652 273.001 764.805 273V273Z" fill="#6F32EC"/>
<path d="M765.6 300H728.89C728.594 300.377 728.249 300.713 727.865 301C727.311 301.419 726.7 301.755 726.05 302H721.23C720.684 301.864 720.163 301.639 719.69 301.335C719.168 301.007 718.742 300.546 718.455 300H716.9C715.305 300 714 300.96 714 302.13V309.87C714 311.04 715.305 312 716.9 312H765.6C767.195 312 768.5 311.04 768.5 309.87V302.13C768.5 300.96 767.195 300 765.6 300Z" fill="#6F32EC"/>
<path d="M712.825 312H724.325C723.586 313.276 722.501 314.316 721.195 315H715.88C715.18 314.757 714.543 314.362 714.015 313.844C713.487 313.325 713.08 312.695 712.825 312Z" fill="#6F32EC"/>
<path d="M711.555 273H709.445C708.095 273 707 274.095 707 275.445V310.055C707 311.405 708.095 312.5 709.445 312.5H711.555C712.905 312.5 714 311.405 714 310.055V275.445C714 274.095 712.905 273 711.555 273Z" fill="#6F32EC"/>
<path d="M716 300H712.5C711.948 300 711.5 300.448 711.5 301C711.5 301.552 711.948 302 712.5 302H716C716.552 302 717 301.552 717 301C717 300.448 716.552 300 716 300Z" fill="#6F32EC"/>
<path d="M715.25 310H711.75C711.06 310 710.5 310.56 710.5 311.25C710.5 311.94 711.06 312.5 711.75 312.5H715.25C715.94 312.5 716.5 311.94 716.5 311.25C716.5 310.56 715.94 310 715.25 310Z" fill="#6F32EC"/>
<path d="M159.825 164H171.325C170.586 165.276 169.501 166.316 168.195 167H162.88C162.18 166.757 161.543 166.362 161.015 165.844C160.487 165.325 160.08 164.695 159.825 164V164Z" fill="#6F32EC"/>
<path d="M205.805 146H165.395C165.079 146.543 164.7 147.047 164.265 147.5C163.683 148.104 163.008 148.61 162.265 149H156.96C156.335 148.781 155.759 148.441 155.265 148C154.657 147.453 154.191 146.766 153.905 146H152.195C151.348 146.001 150.536 146.338 149.937 146.937C149.338 147.536 149.001 148.348 149 149.195V160.805C149.001 161.652 149.338 162.464 149.937 163.063C150.536 163.662 151.348 163.999 152.195 164H205.805C206.652 163.999 207.464 163.662 208.063 163.063C208.662 162.464 208.999 161.652 209 160.805V149.195C208.999 148.348 208.662 147.536 208.063 146.937C207.464 146.338 206.652 146.001 205.805 146V146Z" fill="#6F32EC"/>
<path d="M206.6 173H169.89C169.594 173.377 169.249 173.713 168.865 174C168.311 174.419 167.7 174.755 167.05 175H162.23C161.684 174.864 161.163 174.639 160.69 174.335C160.168 174.007 159.742 173.546 159.455 173H157.9C156.305 173 155 173.96 155 175.13V182.87C155 184.04 156.305 185 157.9 185H206.6C208.195 185 209.5 184.04 209.5 182.87V175.13C209.5 173.96 208.195 173 206.6 173Z" fill="#6F32EC"/>
<path d="M153.825 185H165.325C164.586 186.276 163.501 187.316 162.195 188H156.88C156.18 187.757 155.543 187.362 155.015 186.844C154.487 186.325 154.08 185.695 153.825 185Z" fill="#6F32EC"/>
<path d="M152.555 146H150.445C149.095 146 148 147.095 148 148.445V183.055C148 184.405 149.095 185.5 150.445 185.5H152.555C153.905 185.5 155 184.405 155 183.055V148.445C155 147.095 153.905 146 152.555 146Z" fill="#6F32EC"/>
<path d="M157 173H153.5C152.948 173 152.5 173.448 152.5 174C152.5 174.552 152.948 175 153.5 175H157C157.552 175 158 174.552 158 174C158 173.448 157.552 173 157 173Z" fill="#6F32EC"/>
<path d="M156.25 183H152.75C152.06 183 151.5 183.56 151.5 184.25C151.5 184.94 152.06 185.5 152.75 185.5H156.25C156.94 185.5 157.5 184.94 157.5 184.25C157.5 183.56 156.94 183 156.25 183Z" fill="#6F32EC"/>
<path d="M299.825 291H311.325C310.586 292.276 309.501 293.316 308.195 294H302.88C302.18 293.757 301.543 293.362 301.015 292.844C300.487 292.325 300.08 291.695 299.825 291V291Z" fill="#6F32EC"/>
<path d="M345.805 273H305.395C305.079 273.543 304.7 274.047 304.265 274.5C303.683 275.104 303.008 275.61 302.265 276H296.96C296.335 275.781 295.759 275.441 295.265 275C294.657 274.453 294.191 273.766 293.905 273H292.195C291.348 273.001 290.536 273.338 289.937 273.937C289.338 274.536 289.001 275.348 289 276.195V287.805C289.001 288.652 289.338 289.464 289.937 290.063C290.536 290.662 291.348 290.999 292.195 291H345.805C346.652 290.999 347.464 290.662 348.063 290.063C348.662 289.464 348.999 288.652 349 287.805V276.195C348.999 275.348 348.662 274.536 348.063 273.937C347.464 273.338 346.652 273.001 345.805 273V273Z" fill="#6F32EC"/>
<path d="M346.6 300H309.89C309.594 300.377 309.249 300.713 308.865 301C308.311 301.419 307.7 301.755 307.05 302H302.23C301.684 301.864 301.163 301.639 300.69 301.335C300.168 301.007 299.742 300.546 299.455 300H297.9C296.305 300 295 300.96 295 302.13V309.87C295 311.04 296.305 312 297.9 312H346.6C348.195 312 349.5 311.04 349.5 309.87V302.13C349.5 300.96 348.195 300 346.6 300Z" fill="#6F32EC"/>
<path d="M293.825 312H305.325C304.586 313.276 303.501 314.316 302.195 315H296.88C296.18 314.757 295.543 314.362 295.015 313.844C294.487 313.325 294.08 312.695 293.825 312Z" fill="#6F32EC"/>
<path d="M292.555 273H290.445C289.095 273 288 274.095 288 275.445V310.055C288 311.405 289.095 312.5 290.445 312.5H292.555C293.905 312.5 295 311.405 295 310.055V275.445C295 274.095 293.905 273 292.555 273Z" fill="#6F32EC"/>
<path d="M297 300H293.5C292.948 300 292.5 300.448 292.5 301C292.5 301.552 292.948 302 293.5 302H297C297.552 302 298 301.552 298 301C298 300.448 297.552 300 297 300Z" fill="#6F32EC"/>
<path d="M296.25 310H292.75C292.06 310 291.5 310.56 291.5 311.25C291.5 311.94 292.06 312.5 292.75 312.5H296.25C296.94 312.5 297.5 311.94 297.5 311.25C297.5 310.56 296.94 310 296.25 310Z" fill="#6F32EC"/>
<path d="M48.825 164H60.325C59.5861 165.276 58.5009 166.316 57.195 167H51.88C51.1804 166.757 50.5435 166.362 50.0151 165.844C49.4868 165.325 49.0803 164.695 48.825 164V164Z" fill="#6F32EC"/>
<path d="M94.805 146H54.395C54.0791 146.543 53.6998 147.047 53.265 147.5C52.6827 148.104 52.0075 148.61 51.265 149H45.96C45.3349 148.781 44.759 148.441 44.265 148C43.6573 147.453 43.1907 146.766 42.905 146H41.195C40.348 146.001 39.5361 146.338 38.9373 146.937C38.3384 147.536 38.0013 148.348 38 149.195V160.805C38.0013 161.652 38.3384 162.464 38.9373 163.063C39.5361 163.662 40.348 163.999 41.195 164H94.805C95.652 163.999 96.4639 163.662 97.0627 163.063C97.6616 162.464 97.9987 161.652 98 160.805V149.195C97.9987 148.348 97.6616 147.536 97.0627 146.937C96.4639 146.338 95.652 146.001 94.805 146V146Z" fill="#6F32EC"/>
<path d="M95.6 173H58.89C58.5939 173.377 58.2492 173.713 57.865 174C57.3111 174.419 56.6998 174.755 56.05 175H51.23C50.6837 174.864 50.1635 174.639 49.69 174.335C49.1679 174.007 48.7418 173.546 48.455 173H46.9C45.305 173 44 173.96 44 175.13V182.87C44 184.04 45.305 185 46.9 185H95.6C97.195 185 98.5 184.04 98.5 182.87V175.13C98.5 173.96 97.195 173 95.6 173Z" fill="#6F32EC"/>
<path d="M42.825 185H54.325C53.5861 186.276 52.5009 187.316 51.195 188H45.88C45.1804 187.757 44.5435 187.362 44.0151 186.844C43.4868 186.325 43.0803 185.695 42.825 185Z" fill="#6F32EC"/>
<path d="M41.555 146H39.445C38.0947 146 37 147.095 37 148.445V183.055C37 184.405 38.0947 185.5 39.445 185.5H41.555C42.9053 185.5 44 184.405 44 183.055V148.445C44 147.095 42.9053 146 41.555 146Z" fill="#6F32EC"/>
<path d="M46 173H42.5C41.9477 173 41.5 173.448 41.5 174C41.5 174.552 41.9477 175 42.5 175H46C46.5523 175 47 174.552 47 174C47 173.448 46.5523 173 46 173Z" fill="#6F32EC"/>
<path d="M45.25 183H41.75C41.0596 183 40.5 183.56 40.5 184.25C40.5 184.94 41.0596 185.5 41.75 185.5H45.25C45.9404 185.5 46.5 184.94 46.5 184.25C46.5 183.56 45.9404 183 45.25 183Z" fill="#6F32EC"/>
<g clip-path="url(#clip1_11_13)">
<path d="M157.825 57H169.325C168.586 58.2757 167.501 59.3159 166.195 60H160.88C160.18 59.7574 159.543 59.3624 159.015 58.8436C158.487 58.3247 158.08 57.6951 157.825 57Z" fill="#6F32EC"/>
<path d="M203.805 39H163.395C163.079 39.543 162.7 40.0465 162.265 40.5C161.683 41.1036 161.008 41.61 160.265 42H154.96C154.335 41.7809 153.759 41.4412 153.265 41C152.657 40.4525 152.191 39.7664 151.905 39H150.195C149.348 39.0013 148.536 39.3384 147.937 39.9373C147.338 40.5361 147.001 41.348 147 42.195V53.805C147.001 54.652 147.338 55.4639 147.937 56.0627C148.536 56.6616 149.348 56.9987 150.195 57H203.805C204.652 56.9987 205.464 56.6616 206.063 56.0627C206.662 55.4639 206.999 54.652 207 53.805V42.195C206.999 41.348 206.662 40.5361 206.063 39.9373C205.464 39.3384 204.652 39.0013 203.805 39V39Z" fill="#6F32EC"/>
<path d="M203.805 39H163.395C163.079 39.543 162.7 40.0465 162.265 40.5C161.683 41.1036 161.008 41.61 160.265 42H154.96C154.335 41.7809 153.759 41.4412 153.265 41C152.657 40.4525 152.191 39.7664 151.905 39H150.195C149.348 39.0013 148.536 39.3384 147.937 39.9373C147.338 40.5361 147.001 41.348 147 42.195V53.805C147.001 54.652 147.338 55.4639 147.937 56.0627C148.536 56.6616 149.348 56.9987 150.195 57H203.805C204.652 56.9987 205.464 56.6616 206.063 56.0627C206.662 55.4639 206.999 54.652 207 53.805V42.195C206.999 41.348 206.662 40.5361 206.063 39.9373C205.464 39.3384 204.652 39.0013 203.805 39Z" fill="#6F32EC"/>
<path d="M204.6 66H167.89C167.594 66.377 167.249 66.7133 166.865 67C166.311 67.4187 165.7 67.7555 165.05 68H160.23C159.684 67.8642 159.163 67.6395 158.69 67.335C158.168 67.0066 157.742 66.546 157.455 66H155.9C154.305 66 153 66.96 153 68.13V75.87C153 77.04 154.305 78 155.9 78H204.6C206.195 78 207.5 77.04 207.5 75.87V68.13C207.5 66.96 206.195 66 204.6 66Z" fill="#6F32EC"/>
<path d="M151.825 78H163.325C162.586 79.2757 161.501 80.3159 160.195 81H154.88C154.18 80.7574 153.543 80.3624 153.015 79.8436C152.487 79.3247 152.08 78.6951 151.825 78Z" fill="#6F32EC"/>
<path d="M150.555 39H148.445C147.095 39 146 40.0947 146 41.445V76.055C146 77.4053 147.095 78.5 148.445 78.5H150.555C151.905 78.5 153 77.4053 153 76.055V41.445C153 40.0947 151.905 39 150.555 39Z" fill="#6F32EC"/>
<path d="M155 66H151.5C150.948 66 150.5 66.4477 150.5 67C150.5 67.5523 150.948 68 151.5 68H155C155.552 68 156 67.5523 156 67C156 66.4477 155.552 66 155 66Z" fill="#6F32EC"/>
<path d="M154.25 76H150.75C150.06 76 149.5 76.5596 149.5 77.25C149.5 77.9404 150.06 78.5 150.75 78.5H154.25C154.94 78.5 155.5 77.9404 155.5 77.25C155.5 76.5596 154.94 76 154.25 76Z" fill="#6F32EC"/>
</g>
<path d="M288 164H299.5C298.761 165.276 297.676 166.316 296.37 167H291.055C290.355 166.757 289.718 166.362 289.19 165.844C288.662 165.325 288.255 164.695 288 164Z" fill="#6F32EC"/>
<path d="M299.765 48H311.265C310.526 49.2757 309.441 50.3159 308.135 51H302.825C302.199 50.7822 301.623 50.4423 301.13 50C300.521 49.4525 300.053 48.7665 299.765 48V48Z" fill="#6F32EC"/>
<path d="M345.75 30H305.335C305.023 30.5441 304.645 31.0479 304.21 31.5C303.627 32.1025 302.952 32.6088 302.21 33H296.905C296.279 32.7822 295.703 32.4423 295.21 32C294.601 31.4525 294.133 30.7665 293.845 30H292.135C291.289 30.0026 290.478 30.3403 289.88 30.939C289.283 31.5378 288.946 32.3489 288.945 33.195V44.805C288.946 45.6511 289.283 46.4622 289.88 47.061C290.478 47.6597 291.289 47.9974 292.135 48H345.75C346.597 47.9974 347.408 47.6599 348.006 47.0613C348.605 46.4627 348.942 45.6516 348.945 44.805V33.195C348.942 32.3484 348.605 31.5373 348.006 30.9387C347.408 30.3401 346.597 30.0026 345.75 30V30Z" fill="#6F32EC"/>
<path d="M346.6 78.175H309.89C309.594 78.5521 309.249 78.8883 308.865 79.175C308.311 79.5937 307.7 79.9305 307.05 80.175H302.23C301.684 80.0338 301.164 79.8059 300.69 79.5C300.168 79.1716 299.742 78.7111 299.455 78.165H297.9C296.305 78.165 295 79.125 295 80.295V88.035C295 89.205 296.305 90.165 297.9 90.165H346.6C348.195 90.165 349.5 89.205 349.5 88.035V80.305C349.5 79.135 348.195 78.175 346.6 78.175Z" fill="#6F32EC"/>
<path d="M293.765 90.175H305.265C304.526 91.4507 303.441 92.4909 302.135 93.175H296.825C296.199 92.9572 295.623 92.6173 295.13 92.175C294.521 91.6274 294.053 90.9415 293.765 90.175V90.175Z" fill="#6F32EC"/>
<path d="M292.555 30.175H290.445C289.095 30.175 288 31.2697 288 32.62V88.23C288 89.5803 289.095 90.675 290.445 90.675H292.555C293.905 90.675 295 89.5803 295 88.23V32.62C295 31.2697 293.905 30.175 292.555 30.175Z" fill="#6F32EC"/>
<path d="M298.5 78.675H295C294.448 78.675 294 79.1227 294 79.675C294 80.2273 294.448 80.675 295 80.675H298.5C299.052 80.675 299.5 80.2273 299.5 79.675C299.5 79.1227 299.052 78.675 298.5 78.675Z" fill="#6F32EC"/>
<path d="M296.75 88.175H293.25C292.56 88.175 292 88.7346 292 89.425C292 90.1153 292.56 90.675 293.25 90.675H296.75C297.44 90.675 298 90.1153 298 89.425C298 88.7346 297.44 88.175 296.75 88.175Z" fill="#6F32EC"/>
<path d="M346.18 57.175H310.5C310.212 57.5503 309.875 57.8865 309.5 58.175C308.962 58.5906 308.368 58.9274 307.735 59.175H303.03C302.497 59.0374 301.99 58.8127 301.53 58.51C301.019 58.1775 300.604 57.7173 300.325 57.175H298.825C297.275 57.175 296.005 58.135 296.005 59.305V67.045C296.005 68.215 297.275 69.175 298.825 69.175H346.185C347.735 69.175 349.005 68.215 349.005 67.045V59.305C349 58.135 347.73 57.175 346.18 57.175Z" fill="#6F32EC"/>
<path d="M299.87 69.175H311.37C310.631 70.4507 309.546 71.4909 308.24 72.175H302.925C302.225 71.9324 301.588 71.5374 301.06 71.0185C300.532 70.4997 300.125 69.8701 299.87 69.175V69.175Z" fill="#6F32EC"/>
<path d="M298.17 57.175H296.06C294.71 57.175 293.615 58.2697 293.615 59.62V66.805C293.615 68.1553 294.71 69.25 296.06 69.25H298.17C299.52 69.25 300.615 68.1553 300.615 66.805V59.62C300.615 58.2697 299.52 57.175 298.17 57.175Z" fill="#6F32EC"/>
<path d="M298.17 77.96H296.06C294.71 77.96 293.615 79.0546 293.615 80.405V87.59C293.615 88.9403 294.71 90.035 296.06 90.035H298.17C299.52 90.035 300.615 88.9403 300.615 87.59V80.405C300.615 79.0546 299.52 77.96 298.17 77.96Z" fill="#6F32EC"/>
<path d="M208.96 279.306H164.17C163.817 279.855 163.397 280.359 162.92 280.806C162.263 281.417 161.516 281.923 160.705 282.306H154.82C154.138 282.091 153.503 281.752 152.945 281.306C152.285 280.776 151.769 280.088 151.445 279.306H149.54C147.595 279.306 146 280.741 146 282.506V294.11C146 295.87 147.595 297.305 149.54 297.305H208.96C210.905 297.305 212.5 295.87 212.5 294.11V282.506C212.5 280.741 210.905 279.306 208.96 279.306Z" fill="#6F32EC"/>
<path d="M152.44 297.305H163.94C163.628 297.849 163.25 298.353 162.815 298.805C162.232 299.408 161.557 299.914 160.815 300.305H155.5C154.874 300.087 154.298 299.747 153.805 299.305C153.196 298.758 152.728 298.072 152.44 297.305V297.305Z" fill="#6F32EC"/>
<path d="M182.19 279.306C179.835 277.077 177.035 275.37 173.975 274.299C170.914 273.228 167.661 272.817 164.43 273.091C161.132 272.781 157.807 273.263 154.732 274.496C151.657 275.729 148.921 277.678 146.75 280.181C151.505 284.014 157.394 286.167 163.5 286.306C173.8 286.476 180.635 280.696 182.19 279.306Z" fill="#6F32EC"/>
<path d="M208.96 279.306H164.17C163.817 279.855 163.397 280.359 162.92 280.806C162.263 281.417 161.516 281.923 160.705 282.306H154.82C154.138 282.091 153.503 281.752 152.945 281.306C152.285 280.776 151.769 280.088 151.445 279.306H149.54C147.595 279.306 146 280.741 146 282.506V294.11C146 295.87 147.595 297.305 149.54 297.305H208.96C210.905 297.305 212.5 295.87 212.5 294.11V282.506C212.5 280.741 210.905 279.306 208.96 279.306Z" fill="#6F32EC"/>
<path d="M152.44 297.305H163.94C163.628 297.849 163.25 298.353 162.815 298.805C162.232 299.408 161.557 299.914 160.815 300.305H155.5C154.874 300.087 154.298 299.747 153.805 299.305C153.196 298.758 152.728 298.072 152.44 297.305V297.305Z" fill="#6F32EC"/>
<path d="M182.19 279.306C179.835 277.077 177.035 275.37 173.975 274.299C170.914 273.228 167.661 272.817 164.43 273.091C161.132 272.781 157.807 273.263 154.732 274.496C151.657 275.729 148.921 277.678 146.75 280.181C151.505 284.014 157.394 286.167 163.5 286.306C173.8 286.476 180.635 280.696 182.19 279.306Z" fill="#6F32EC"/>
<path d="M489.96 279.306H445.17C444.817 279.855 444.397 280.359 443.92 280.806C443.263 281.417 442.516 281.923 441.705 282.306H435.82C435.138 282.091 434.503 281.752 433.945 281.306C433.285 280.776 432.769 280.088 432.445 279.306H430.54C428.595 279.306 427 280.741 427 282.506V294.11C427 295.87 428.595 297.305 430.54 297.305H489.96C491.905 297.305 493.5 295.87 493.5 294.11V282.506C493.5 280.741 491.905 279.306 489.96 279.306Z" fill="#6F32EC"/>
<path d="M433.44 297.305H444.94C444.628 297.849 444.25 298.353 443.815 298.805C443.232 299.408 442.557 299.914 441.815 300.305H436.5C435.874 300.087 435.298 299.747 434.805 299.305C434.196 298.758 433.728 298.072 433.44 297.305V297.305Z" fill="#6F32EC"/>
<path d="M463.19 279.306C460.835 277.077 458.035 275.37 454.975 274.299C451.914 273.228 448.661 272.817 445.43 273.091C442.132 272.781 438.807 273.263 435.732 274.496C432.657 275.729 429.921 277.678 427.75 280.181C432.505 284.014 438.394 286.167 444.5 286.306C454.8 286.476 461.635 280.696 463.19 279.306Z" fill="#6F32EC"/>
<path d="M591.765 291H603.265C602.526 292.276 601.441 293.316 600.135 294H594.825C594.199 293.782 593.623 293.442 593.13 293C592.521 292.452 592.053 291.766 591.765 291V291Z" fill="#6F32EC"/>
<path d="M637.75 273H597.335C597.023 273.544 596.645 274.048 596.21 274.5C595.627 275.103 594.952 275.609 594.21 276H588.905C588.279 275.782 587.703 275.442 587.21 275C586.601 274.452 586.133 273.766 585.845 273H584.135C583.289 273.003 582.478 273.34 581.88 273.939C581.283 274.538 580.946 275.349 580.945 276.195V287.805C580.946 288.651 581.283 289.462 581.88 290.061C582.478 290.66 583.289 290.997 584.135 291H637.75C638.597 290.997 639.408 290.66 640.006 290.061C640.605 289.463 640.942 288.652 640.945 287.805V276.195C640.942 275.348 640.605 274.537 640.006 273.939C639.408 273.34 638.597 273.003 637.75 273V273Z" fill="#6F32EC"/>
<path d="M638.6 321.175H601.89C601.594 321.552 601.249 321.888 600.865 322.175C600.311 322.594 599.7 322.93 599.05 323.175H594.23C593.684 323.034 593.164 322.806 592.69 322.5C592.168 322.172 591.742 321.711 591.455 321.165H589.9C588.305 321.165 587 322.125 587 323.295V331.035C587 332.205 588.305 333.165 589.9 333.165H638.6C640.195 333.165 641.5 332.205 641.5 331.035V323.305C641.5 322.135 640.195 321.175 638.6 321.175Z" fill="#6F32EC"/>
<path d="M585.765 333.175H597.265C596.526 334.451 595.441 335.491 594.135 336.175H588.825C588.199 335.957 587.623 335.617 587.13 335.175C586.521 334.627 586.053 333.941 585.765 333.175V333.175Z" fill="#6F32EC"/>
<path d="M584.555 273.175H582.445C581.095 273.175 580 274.27 580 275.62V331.23C580 332.58 581.095 333.675 582.445 333.675H584.555C585.905 333.675 587 332.58 587 331.23V275.62C587 274.27 585.905 273.175 584.555 273.175Z" fill="#6F32EC"/>
<path d="M590.5 321.675H587C586.448 321.675 586 322.123 586 322.675C586 323.227 586.448 323.675 587 323.675H590.5C591.052 323.675 591.5 323.227 591.5 322.675C591.5 322.123 591.052 321.675 590.5 321.675Z" fill="#6F32EC"/>
<path d="M588.75 331.175H585.25C584.56 331.175 584 331.735 584 332.425C584 333.115 584.56 333.675 585.25 333.675H588.75C589.44 333.675 590 333.115 590 332.425C590 331.735 589.44 331.175 588.75 331.175Z" fill="#6F32EC"/>
<path d="M638.18 300.175H602.5C602.212 300.55 601.875 300.887 601.5 301.175C600.962 301.591 600.368 301.927 599.735 302.175H595.03C594.497 302.037 593.99 301.813 593.53 301.51C593.019 301.178 592.604 300.717 592.325 300.175H590.825C589.275 300.175 588.005 301.135 588.005 302.305V310.045C588.005 311.215 589.275 312.175 590.825 312.175H638.185C639.735 312.175 641.005 311.215 641.005 310.045V302.305C641 301.135 639.73 300.175 638.18 300.175Z" fill="#6F32EC"/>
<path d="M591.87 312.175H603.37C602.631 313.451 601.546 314.491 600.24 315.175H594.925C594.225 314.932 593.588 314.537 593.06 314.019C592.532 313.5 592.125 312.87 591.87 312.175V312.175Z" fill="#6F32EC"/>
<path d="M590.17 300.175H588.06C586.71 300.175 585.615 301.27 585.615 302.62V309.805C585.615 311.155 586.71 312.25 588.06 312.25H590.17C591.52 312.25 592.615 311.155 592.615 309.805V302.62C592.615 301.27 591.52 300.175 590.17 300.175Z" fill="#6F32EC"/>
<path d="M590.17 320.96H588.06C586.71 320.96 585.615 322.055 585.615 323.405V330.59C585.615 331.94 586.71 333.035 588.06 333.035H590.17C591.52 333.035 592.615 331.94 592.615 330.59V323.405C592.615 322.055 591.52 320.96 590.17 320.96Z" fill="#6F32EC"/>
<path d="M594.765 57H606.265C605.526 58.2757 604.441 59.3159 603.135 60H597.825C597.199 59.7822 596.623 59.4423 596.13 59C595.521 58.4525 595.053 57.7665 594.765 57V57Z" fill="#6F32EC"/>
<path d="M640.75 39H600.335C600.023 39.5441 599.645 40.0479 599.21 40.5C598.627 41.1025 597.952 41.6088 597.21 42H591.905C591.279 41.7822 590.703 41.4423 590.21 41C589.601 40.4525 589.133 39.7665 588.845 39H587.135C586.289 39.0026 585.478 39.3403 584.88 39.939C584.283 40.5378 583.946 41.3489 583.945 42.195V53.805C583.946 54.6511 584.283 55.4622 584.88 56.061C585.478 56.6597 586.289 56.9974 587.135 57H640.75C641.597 56.9974 642.408 56.6599 643.006 56.0613C643.605 55.4627 643.942 54.6516 643.945 53.805V42.195C643.942 41.3484 643.605 40.5373 643.006 39.9387C642.408 39.3401 641.597 39.0026 640.75 39V39Z" fill="#6F32EC"/>
<path d="M641.6 87.175H604.89C604.594 87.5521 604.249 87.8883 603.865 88.175C603.311 88.5937 602.7 88.9305 602.05 89.175H597.23C596.684 89.0338 596.164 88.8059 595.69 88.5C595.168 88.1716 594.742 87.7111 594.455 87.165H592.9C591.305 87.165 590 88.125 590 89.295V97.035C590 98.205 591.305 99.165 592.9 99.165H641.6C643.195 99.165 644.5 98.205 644.5 97.035V89.305C644.5 88.135 643.195 87.175 641.6 87.175Z" fill="#6F32EC"/>
<path d="M588.765 99.175H600.265C599.526 100.451 598.441 101.491 597.135 102.175H591.825C591.199 101.957 590.623 101.617 590.13 101.175C589.521 100.627 589.053 99.9415 588.765 99.175V99.175Z" fill="#6F32EC"/>
<path d="M587.555 39.175H585.445C584.095 39.175 583 40.2697 583 41.62V97.23C583 98.5803 584.095 99.675 585.445 99.675H587.555C588.905 99.675 590 98.5803 590 97.23V41.62C590 40.2697 588.905 39.175 587.555 39.175Z" fill="#6F32EC"/>
<path d="M593.5 87.675H590C589.448 87.675 589 88.1227 589 88.675C589 89.2273 589.448 89.675 590 89.675H593.5C594.052 89.675 594.5 89.2273 594.5 88.675C594.5 88.1227 594.052 87.675 593.5 87.675Z" fill="#6F32EC"/>
<path d="M591.75 97.175H588.25C587.56 97.175 587 97.7346 587 98.425C587 99.1153 587.56 99.675 588.25 99.675H591.75C592.44 99.675 593 99.1153 593 98.425C593 97.7346 592.44 97.175 591.75 97.175Z" fill="#6F32EC"/>
<path d="M641.18 66.175H605.5C605.212 66.5503 604.875 66.8865 604.5 67.175C603.962 67.5906 603.368 67.9274 602.735 68.175H598.03C597.497 68.0374 596.99 67.8127 596.53 67.51C596.019 67.1775 595.604 66.7173 595.325 66.175H593.825C592.275 66.175 591.005 67.135 591.005 68.305V76.045C591.005 77.215 592.275 78.175 593.825 78.175H641.185C642.735 78.175 644.005 77.215 644.005 76.045V68.305C644 67.135 642.73 66.175 641.18 66.175Z" fill="#6F32EC"/>
<path d="M594.87 78.175H606.37C605.631 79.4507 604.546 80.4909 603.24 81.175H597.925C597.225 80.9324 596.588 80.5374 596.06 80.0185C595.532 79.4997 595.125 78.8701 594.87 78.175V78.175Z" fill="#6F32EC"/>
<path d="M593.17 66.175H591.06C589.71 66.175 588.615 67.2697 588.615 68.62V75.805C588.615 77.1553 589.71 78.25 591.06 78.25H593.17C594.52 78.25 595.615 77.1553 595.615 75.805V68.62C595.615 67.2697 594.52 66.175 593.17 66.175Z" fill="#6F32EC"/>
<path d="M593.17 86.96H591.06C589.71 86.96 588.615 88.0546 588.615 89.405V96.59C588.615 97.9403 589.71 99.035 591.06 99.035H593.17C594.52 99.035 595.615 97.9403 595.615 96.59V89.405C595.615 88.0546 594.52 86.96 593.17 86.96Z" fill="#6F32EC"/>
<path d="M45.765 57H57.265C56.5261 58.2757 55.4409 59.3159 54.135 60H48.825C48.1993 59.7822 47.6232 59.4423 47.13 59C46.5212 58.4525 46.053 57.7665 45.765 57V57Z" fill="#6F32EC"/>
<path d="M91.75 39H51.335C51.0228 39.5441 50.6449 40.0479 50.21 40.5C49.6268 41.1025 48.9517 41.6088 48.21 42H42.905C42.2793 41.7822 41.7032 41.4423 41.21 41C40.6012 40.4525 40.133 39.7665 39.845 39H38.135C37.2889 39.0026 36.4783 39.3403 35.8805 39.939C35.2827 40.5378 34.9463 41.3489 34.945 42.195V53.805C34.9463 54.6511 35.2827 55.4622 35.8805 56.061C36.4783 56.6597 37.2889 56.9974 38.135 57H91.75C92.5966 56.9974 93.4077 56.6599 94.0063 56.0613C94.6049 55.4627 94.9424 54.6516 94.945 53.805V42.195C94.9424 41.3484 94.6049 40.5373 94.0063 39.9387C93.4077 39.3401 92.5966 39.0026 91.75 39Z" fill="#6F32EC"/>
<path d="M92.6 87.175H55.89C55.5939 87.5521 55.2492 87.8883 54.865 88.175C54.3111 88.5937 53.6998 88.9305 53.05 89.175H48.23C47.6839 89.0338 47.1639 88.8059 46.69 88.5C46.1679 88.1716 45.7418 87.7111 45.455 87.165H43.9C42.305 87.165 41 88.125 41 89.295V97.035C41 98.205 42.305 99.165 43.9 99.165H92.6C94.195 99.165 95.5 98.205 95.5 97.035V89.305C95.5 88.135 94.195 87.175 92.6 87.175Z" fill="#6F32EC"/>
<path d="M39.765 99.175H51.265C50.5261 100.451 49.4409 101.491 48.135 102.175H42.825C42.1993 101.957 41.6232 101.617 41.13 101.175C40.5212 100.627 40.053 99.9415 39.765 99.175V99.175Z" fill="#6F32EC"/>
<path d="M38.555 39.175H36.445C35.0947 39.175 34 40.2697 34 41.62V97.23C34 98.5803 35.0947 99.675 36.445 99.675H38.555C39.9053 99.675 41 98.5803 41 97.23V41.62C41 40.2697 39.9053 39.175 38.555 39.175Z" fill="#6F32EC"/>
<path d="M44.5 87.675H41C40.4477 87.675 40 88.1227 40 88.675C40 89.2273 40.4477 89.675 41 89.675H44.5C45.0523 89.675 45.5 89.2273 45.5 88.675C45.5 88.1227 45.0523 87.675 44.5 87.675Z" fill="#6F32EC"/>
<path d="M42.75 97.175H39.25C38.5596 97.175 38 97.7346 38 98.425C38 99.1153 38.5596 99.675 39.25 99.675H42.75C43.4404 99.675 44 99.1153 44 98.425C44 97.7346 43.4404 97.175 42.75 97.175Z" fill="#6F32EC"/>
<path d="M92.18 66.175H56.5C56.2115 66.5503 55.8754 66.8865 55.5 67.175C54.9623 67.5906 54.3679 67.9274 53.735 68.175H49.03C48.4968 68.0374 47.99 67.8127 47.53 67.51C47.0189 67.1775 46.6035 66.7173 46.325 66.175H44.825C43.275 66.175 42.005 67.135 42.005 68.305V76.045C42.005 77.215 43.275 78.175 44.825 78.175H92.185C93.735 78.175 95.005 77.215 95.005 76.045V68.305C95 67.135 93.73 66.175 92.18 66.175Z" fill="#6F32EC"/>
<path d="M45.87 78.175H57.37C56.6311 79.4507 55.5459 80.4909 54.24 81.175H48.925C48.2254 80.9324 47.5884 80.5374 47.0601 80.0185C46.5318 79.4997 46.1253 78.8701 45.87 78.175V78.175Z" fill="#6F32EC"/>
<path d="M44.17 66.175H42.06C40.7097 66.175 39.615 67.2697 39.615 68.62V75.805C39.615 77.1553 40.7097 78.25 42.06 78.25H44.17C45.5203 78.25 46.615 77.1553 46.615 75.805V68.62C46.615 67.2697 45.5203 66.175 44.17 66.175Z" fill="#6F32EC"/>
<path d="M44.17 86.96H42.06C40.7097 86.96 39.615 88.0546 39.615 89.405V96.59C39.615 97.9403 40.7097 99.035 42.06 99.035H44.17C45.5203 99.035 46.615 97.9403 46.615 96.59V89.405C46.615 88.0546 45.5203 86.96 44.17 86.96Z" fill="#6F32EC"/>
<path d="M45.765 244H57.265C56.5261 245.276 55.4409 246.316 54.135 247H48.825C48.1993 246.782 47.6232 246.442 47.13 246C46.5212 245.452 46.053 244.766 45.765 244V244Z" fill="#6F32EC"/>
<path d="M91.75 226H51.335C51.0228 226.544 50.6449 227.048 50.21 227.5C49.6268 228.103 48.9517 228.609 48.21 229H42.905C42.2793 228.782 41.7032 228.442 41.21 228C40.6012 227.452 40.133 226.766 39.845 226H38.135C37.2889 226.003 36.4783 226.34 35.8805 226.939C35.2827 227.538 34.9463 228.349 34.945 229.195V240.805C34.9463 241.651 35.2827 242.462 35.8805 243.061C36.4783 243.66 37.2889 243.997 38.135 244H91.75C92.5966 243.997 93.4077 243.66 94.0063 243.061C94.6049 242.463 94.9424 241.652 94.945 240.805V229.195C94.9424 228.348 94.6049 227.537 94.0063 226.939C93.4077 226.34 92.5966 226.003 91.75 226Z" fill="#6F32EC"/>
<path d="M92.6 274.175H55.89C55.5939 274.552 55.2492 274.888 54.865 275.175C54.3111 275.594 53.6998 275.93 53.05 276.175H48.23C47.6839 276.034 47.1639 275.806 46.69 275.5C46.1679 275.172 45.7418 274.711 45.455 274.165H43.9C42.305 274.165 41 275.125 41 276.295V284.035C41 285.205 42.305 286.165 43.9 286.165H92.6C94.195 286.165 95.5 285.205 95.5 284.035V276.305C95.5 275.135 94.195 274.175 92.6 274.175Z" fill="#6F32EC"/>
<path d="M39.765 286.175H51.265C50.5261 287.451 49.4409 288.491 48.135 289.175H42.825C42.1993 288.957 41.6232 288.617 41.13 288.175C40.5212 287.627 40.053 286.941 39.765 286.175V286.175Z" fill="#6F32EC"/>
<path d="M38.555 226.175H36.445C35.0947 226.175 34 227.27 34 228.62V284.23C34 285.58 35.0947 286.675 36.445 286.675H38.555C39.9053 286.675 41 285.58 41 284.23V228.62C41 227.27 39.9053 226.175 38.555 226.175Z" fill="#6F32EC"/>
<path d="M44.5 274.675H41C40.4477 274.675 40 275.123 40 275.675C40 276.227 40.4477 276.675 41 276.675H44.5C45.0523 276.675 45.5 276.227 45.5 275.675C45.5 275.123 45.0523 274.675 44.5 274.675Z" fill="#6F32EC"/>
<path d="M42.75 284.175H39.25C38.5596 284.175 38 284.735 38 285.425C38 286.115 38.5596 286.675 39.25 286.675H42.75C43.4404 286.675 44 286.115 44 285.425C44 284.735 43.4404 284.175 42.75 284.175Z" fill="#6F32EC"/>
<path d="M92.18 253.175H56.5C56.2115 253.55 55.8754 253.887 55.5 254.175C54.9623 254.591 54.3679 254.927 53.735 255.175H49.03C48.4968 255.037 47.99 254.813 47.53 254.51C47.0189 254.178 46.6035 253.717 46.325 253.175H44.825C43.275 253.175 42.005 254.135 42.005 255.305V263.045C42.005 264.215 43.275 265.175 44.825 265.175H92.185C93.735 265.175 95.005 264.215 95.005 263.045V255.305C95 254.135 93.73 253.175 92.18 253.175Z" fill="#6F32EC"/>
<path d="M45.87 265.175H57.37C56.6311 266.451 55.5459 267.491 54.24 268.175H48.925C48.2254 267.932 47.5884 267.537 47.0601 267.019C46.5318 266.5 46.1253 265.87 45.87 265.175V265.175Z" fill="#6F32EC"/>
<path d="M44.17 253.175H42.06C40.7097 253.175 39.615 254.27 39.615 255.62V262.805C39.615 264.155 40.7097 265.25 42.06 265.25H44.17C45.5203 265.25 46.615 264.155 46.615 262.805V255.62C46.615 254.27 45.5203 253.175 44.17 253.175Z" fill="#6F32EC"/>
<path d="M44.17 273.96H42.06C40.7097 273.96 39.615 275.055 39.615 276.405V283.59C39.615 284.94 40.7097 286.035 42.06 286.035H44.17C45.5203 286.035 46.615 284.94 46.615 283.59V276.405C46.615 275.055 45.5203 273.96 44.17 273.96Z" fill="#6F32EC"/>
<path d="M332.805 146H292.395C292.079 146.543 291.7 147.047 291.265 147.5C290.683 148.104 290.008 148.61 289.265 149H283.96C283.335 148.781 282.759 148.441 282.265 148C281.657 147.453 281.191 146.766 280.905 146H279.195C278.348 146.001 277.536 146.338 276.937 146.937C276.338 147.536 276.001 148.348 276 149.195V160.805C276.001 161.652 276.338 162.464 276.937 163.063C277.536 163.662 278.348 163.999 279.195 164H332.805C333.652 163.999 334.464 163.662 335.063 163.063C335.662 162.464 335.999 161.652 336 160.805V149.195C335.999 148.348 335.662 147.536 335.063 146.937C334.464 146.338 333.652 146.001 332.805 146Z" fill="#6F32EC"/>
</g>
<defs>
<clipPath id="clip0_11_13">
<rect width="800" height="360" fill="white"/>
</clipPath>
<clipPath id="clip1_11_13">
<rect width="61.5" height="42" fill="white" transform="translate(146 39)"/>
</clipPath>
</defs>
</svg>
