<svg width="443" height="62" viewBox="0 0 443 62" fill="none" xmlns="http://www.w3.org/2000/svg">
<path d="M13.0859 61.53C11.3929 61.695 9.68718 61.3906 8.15587 60.65C6.65656 59.9397 5.35755 58.8674 4.37587 57.53C3.37382 56.1603 2.76835 54.5411 2.62587 52.85C1.62587 41.92 1.08587 36.46 0.045866 25.54C-0.122595 23.8619 0.174981 22.1699 0.905867 20.65C1.63572 19.1424 2.73688 17.8451 4.10587 16.88C5.51402 15.8741 7.17042 15.2724 8.89586 15.14C21.4159 14.0133 33.9425 12.9833 46.4759 12.05C46.7659 16.05 46.9159 18.05 47.2159 22.12C35.6159 23.0067 24.0192 23.95 12.4259 24.95C11.84 24.9594 11.2806 25.1961 10.8659 25.61C10.6844 25.8421 10.554 26.1101 10.4833 26.3961C10.4127 26.6822 10.4033 26.98 10.4559 27.27C11.2459 36.09 11.6459 40.49 12.4559 49.27C12.4607 49.5586 12.5244 49.8431 12.643 50.1062C12.7617 50.3693 12.9328 50.6054 13.1459 50.8C13.3781 50.9739 13.6431 51.0989 13.925 51.1677C14.2068 51.2364 14.4997 51.2474 14.7859 51.2C26.2459 50.2067 37.7125 49.27 49.1859 48.39C49.4859 52.39 49.6359 54.39 49.9259 58.46C37.6392 59.4 25.3592 60.4233 13.0859 61.53Z" fill="#360B5E"/>
<path d="M66.0858 57.36C64.3988 57.4711 62.7131 57.1256 61.2058 56.36C59.7032 55.6166 58.4158 54.5012 57.4658 53.12C56.5083 51.7366 55.9448 50.1189 55.8358 48.44C55.0558 37.49 54.6558 32.02 53.8358 21.07C53.7044 19.3753 54.0509 17.6777 54.8358 16.17C55.6033 14.673 56.7432 13.3988 58.1458 12.47C59.5711 11.5068 61.2287 10.9439 62.9458 10.84C72.2791 10.2067 81.6124 9.63665 90.9458 9.12999C92.646 9.0121 94.3464 9.35771 95.8658 10.13C97.3657 10.8909 98.6514 12.015 99.6058 13.4C100.578 14.7999 101.133 16.4471 101.206 18.15L102.606 45.55C102.695 47.2361 102.318 48.9143 101.516 50.4C100.73 51.8795 99.5894 53.1406 98.1958 54.07C96.8092 55.0139 95.1907 55.5603 93.5158 55.65C82.5358 56.29 77.0558 56.65 66.0858 57.36ZM92.3758 45.65C91.7858 35.11 91.4958 29.84 90.9058 19.29C80.1858 19.89 74.8158 20.22 64.0958 20.93C64.8058 31.47 65.1558 36.74 65.8658 47.28C76.4658 46.55 81.7658 46.22 92.3758 45.65Z" fill="#360B5E"/>
<path d="M110.296 54.81C109.556 39.3033 108.813 23.7933 108.066 8.27998C120.633 7.67331 133.206 7.16998 145.786 6.76998C147.525 6.69455 149.252 7.08831 150.786 7.90998C152.263 8.71321 153.52 9.86704 154.446 11.27C155.388 12.6883 155.902 14.3476 155.926 16.05C156.236 27.05 156.386 32.51 156.686 43.48C156.743 45.1658 156.331 46.8345 155.496 48.3C154.675 49.7608 153.507 50.9972 152.096 51.9C150.655 52.805 148.997 53.3027 147.296 53.34C134.976 53.7333 122.643 54.2233 110.296 54.81ZM146.426 43.27L145.576 16.88C134.816 17.22 129.436 17.43 118.676 17.88L119.826 44.25C130.506 43.81 135.826 43.65 146.466 43.27H146.426Z" fill="#360B5E"/>
<path d="M164.296 52.86L163.196 6.27999C177.862 5.95999 192.512 5.74 207.146 5.62C207.146 9.62 207.146 11.67 207.206 15.71C196.059 15.7967 184.916 15.94 173.776 16.14C173.836 19.4 173.876 21.04 173.936 24.3C184.666 24.08 190.026 24 200.756 23.91L200.846 34.01C190.166 34.1 184.846 34.17 174.136 34.39C174.206 37.65 174.236 39.28 174.306 42.54C185.326 42.3533 196.342 42.21 207.356 42.11C207.356 46.11 207.356 48.17 207.416 52.21C193.056 52.33 178.682 52.5467 164.296 52.86Z" fill="#360B5E"/>
<path d="M234.686 52.21C234.779 36.6967 234.872 21.19 234.966 5.69C247.546 5.76334 260.122 5.94 272.696 6.22C274.422 6.23752 276.112 6.72123 277.586 7.62C279.024 8.50663 280.22 9.73681 281.066 11.2C281.922 12.6621 282.349 14.3363 282.296 16.03C282.176 20.84 282.106 23.25 281.986 28.03C281.946 29.7191 281.437 31.3638 280.516 32.78C279.613 34.1978 278.373 35.3694 276.906 36.19C275.412 37.017 273.722 37.4247 272.016 37.37C261.166 37.15 255.746 37.08 244.896 36.99C244.826 43.1 244.796 46.15 244.736 52.26C240.706 52.25 238.696 52.23 234.686 52.21ZM271.686 27.29L271.926 16.23C261.196 16 255.826 15.91 245.086 15.8C245.036 20.22 245.016 22.44 244.966 26.86C255.676 26.97 261.016 27.06 271.706 27.29H271.686Z" fill="#360B5E"/>
<path d="M285.986 53.09C286.426 37.5433 286.863 21.9967 287.296 6.45001L297.536 6.76001C297.149 18.94 296.752 31.1233 296.346 43.31C308.599 43.7033 320.846 44.1967 333.086 44.79C332.896 48.79 332.796 50.79 332.596 54.88C317.062 54.1667 301.526 53.57 285.986 53.09Z" fill="#360B5E"/>
<path d="M338.296 18.1C338.364 16.4024 338.904 14.7576 339.856 13.35C340.803 11.9586 342.09 10.8329 343.596 10.08C345.141 9.30059 346.869 8.95499 348.596 9.07998C359.766 9.68998 365.346 10.02 376.516 10.76C378.223 10.8516 379.874 11.4008 381.296 12.35C382.692 13.2897 383.832 14.561 384.616 16.05C385.414 17.5565 385.761 19.2612 385.616 20.96C384.756 33.26 383.889 45.5666 383.016 57.88C378.956 57.59 376.926 57.45 372.866 57.19C373.266 51.19 373.456 48.19 373.866 42.19C363.296 41.5 357.956 41.18 347.296 40.65C346.976 46.65 346.806 49.65 346.486 55.65L336.486 55.13L338.296 18.1ZM374.516 32.1L375.296 20.77C364.576 20.06 359.216 19.77 348.486 19.15C348.246 23.7 348.116 25.98 347.866 30.53C358.556 31.11 363.886 31.43 374.556 32.13L374.516 32.1Z" fill="#360B5E"/>
<path d="M406.396 59.65L407.796 42.3C401.336 32 394.796 21.75 388.176 11.55C393.066 11.89 395.506 12.07 400.386 12.45C405.786 20.23 408.456 24.13 413.766 31.95C420.256 25.11 423.526 21.7 430.106 14.95C435.036 15.39 437.506 15.62 442.426 16.08C434.193 25.0667 426.033 34.1233 417.946 43.25C417.356 50.16 417.066 53.62 416.476 60.53C412.446 60.13 410.426 59.97 406.396 59.65Z" fill="#360B5E"/>
<path d="M18.9659 55C17.3038 55.1719 15.6263 54.8848 14.1159 54.17C12.6375 53.4712 11.3583 52.4121 10.3959 51.09C9.40251 49.7483 8.80648 48.1543 8.67592 46.49C7.67592 35.74 7.14592 30.37 6.13592 19.62C5.95303 17.9597 6.24428 16.2815 6.97592 14.78C7.69438 13.2935 8.77818 12.0136 10.1259 11.06C11.512 10.0739 13.14 9.48282 14.8359 9.34998C27.1559 8.24331 39.4893 7.24331 51.8359 6.34998C52.1259 10.35 52.2759 12.3 52.5659 16.26C41.1392 17.1066 29.7159 18.0233 18.2959 19.01C17.7186 19.0229 17.1679 19.2553 16.7559 19.66C16.5783 19.8902 16.451 20.1551 16.3821 20.4376C16.3132 20.7201 16.3043 21.0138 16.3559 21.3L18.3559 42.98C18.3612 43.2631 18.4242 43.5422 18.5411 43.8001C18.6581 44.0581 18.8264 44.2894 19.0359 44.48C19.2639 44.651 19.5238 44.7745 19.8004 44.8432C20.0769 44.9119 20.3644 44.9244 20.6459 44.88C31.9259 43.9066 43.2059 42.9866 54.4859 42.12C54.7859 46.12 54.9359 48.06 55.2259 52.02C43.1193 52.92 31.0326 53.9133 18.9659 55Z" fill="white"/>
<path d="M71.0959 50.9C69.4385 51.0017 67.7842 50.6563 66.3059 49.9C64.8239 49.1729 63.5559 48.0738 62.6259 46.71C61.6747 45.351 61.1175 43.7557 61.0159 42.1C60.2959 31.38 59.8559 26 59.0959 15.23C58.9683 13.5612 59.315 11.8903 60.0959 10.41C60.8363 8.94202 61.9374 7.68611 63.2959 6.75998C64.6954 5.81825 66.3219 5.26917 68.0059 5.16998C79.0059 4.42998 84.5159 4.08998 95.5359 3.47998C97.2098 3.37219 98.8818 3.71764 100.376 4.47998C101.846 5.23906 103.108 6.34415 104.056 7.69998C105.014 9.07516 105.558 10.6955 105.626 12.37C106.176 23.15 106.456 28.54 107.006 39.37C107.096 41.0283 106.726 42.6792 105.936 44.14C105.163 45.5933 104.043 46.8333 102.676 47.75C101.304 48.6723 99.7067 49.2014 98.0559 49.28C87.2959 49.84 81.8859 50.17 71.0959 50.9ZM96.9559 39.36C96.3859 28.99 96.0959 23.8 95.5159 13.43C84.9659 14.02 79.6959 14.34 69.1459 15.04C69.8359 25.41 70.1459 30.59 70.8759 40.96C81.2959 40.26 86.5259 39.94 96.9559 39.36Z" fill="white"/>
<path d="M114.636 48.39C113.909 33.13 113.176 17.87 112.436 2.60999C124.809 2.02332 137.179 1.52999 149.546 1.12999C151.242 1.05864 152.925 1.44922 154.416 2.25999C155.874 3.04422 157.114 4.17813 158.026 5.55999C158.949 6.95615 159.455 8.58644 159.486 10.26L160.236 37.26C160.289 38.9219 159.88 40.5661 159.056 42.01C158.251 43.4478 157.1 44.6614 155.706 45.54C154.298 46.4415 152.667 46.9332 150.996 46.96C138.876 47.34 126.756 47.8167 114.636 48.39ZM150.176 37.03C149.836 26.65 149.676 21.46 149.336 11.03C138.756 11.37 133.456 11.57 122.876 12.03C123.326 22.4 123.556 27.59 124.006 37.97C134.466 37.57 139.706 37.37 150.176 37.03Z" fill="white"/>
<path d="M167.756 46.47C167.382 31.2033 167.009 15.93 166.636 0.65C181.042 0.33 195.452 0.113333 209.866 0C209.866 4 209.866 6 209.926 9.93C198.959 10.0167 187.996 10.1567 177.036 10.35C177.106 13.56 177.136 15.16 177.196 18.35C187.756 18.14 193.026 18.06 203.586 17.97C203.586 21.97 203.636 23.97 203.666 27.91C193.156 28 187.906 28.07 177.396 28.28C177.466 31.49 177.496 33.09 177.556 36.28C188.396 36.0867 199.236 35.9467 210.076 35.86C210.076 39.86 210.076 41.86 210.136 45.79C196.009 45.9367 181.882 46.1633 167.756 46.47Z" fill="white"/>
<path d="M236.956 45.83C237.056 30.5767 237.149 15.32 237.236 0.0599976C249.609 0.139998 261.982 0.313331 274.356 0.579998C276.055 0.600457 277.717 1.08079 279.166 1.97C280.582 2.83903 281.758 4.04925 282.586 5.49C283.427 6.92845 283.846 8.5745 283.796 10.24C283.666 14.97 283.606 17.34 283.486 22.07C283.448 23.7331 282.949 25.3531 282.046 26.75C281.155 28.144 279.931 29.295 278.486 30.1C277.018 30.9167 275.355 31.3178 273.676 31.26C263.006 31.05 257.676 30.98 246.996 30.89C246.936 36.89 246.896 39.89 246.836 45.89L236.956 45.83ZM273.386 21.32C273.476 16.97 273.526 14.79 273.616 10.44C263.056 10.21 257.776 10.12 247.206 10.01C247.206 14.37 247.146 16.54 247.096 20.9C257.616 21.01 262.866 21.09 273.386 21.32Z" fill="white"/>
<path d="M287.426 46.7C287.853 31.4 288.286 16.1067 288.726 0.820007C292.726 0.930007 294.726 0.990007 298.796 1.13001L297.626 37.07C309.673 37.47 321.719 37.96 333.766 38.54C333.576 42.54 333.476 44.54 333.286 48.46C318.006 47.76 302.719 47.1733 287.426 46.7Z" fill="white"/>
<path d="M338.926 12.28C338.998 10.6233 339.531 9.01972 340.466 7.64999C341.407 6.26833 342.688 5.15238 344.185 4.40973C345.683 3.66707 347.347 3.32276 349.016 3.40999C360.016 4.00999 365.496 4.33999 376.476 5.06999C378.172 5.16009 379.813 5.70591 381.226 6.64999C382.597 7.57757 383.72 8.82744 384.496 10.29C385.28 11.7727 385.627 13.4478 385.496 15.12C384.643 27.22 383.789 39.3267 382.936 51.44C378.936 51.16 376.936 51.02 372.936 50.76C373.326 44.86 373.526 41.92 373.936 36.02C363.486 35.33 358.256 35.02 347.796 34.45L346.996 49.19C343.046 48.98 341.076 48.87 337.126 48.68C337.726 36.5266 338.326 24.3933 338.926 12.28ZM374.566 26.08C374.866 21.61 375.006 19.37 375.306 14.9C364.756 14.21 359.486 13.9 348.926 13.31C348.686 17.79 348.566 20.03 348.316 24.5C358.816 25.07 364.066 25.39 374.566 26.08Z" fill="white"/>
<path d="M405.886 53.14C406.436 46.32 406.706 42.9 407.266 36.08C400.906 25.94 394.472 15.8533 387.966 5.82001C392.766 6.16001 395.166 6.34001 399.966 6.70001C405.286 14.36 407.916 18.2 413.136 25.89C419.526 19.16 422.736 15.81 429.216 9.13001C434.066 9.56001 436.486 9.78001 441.336 10.24C433.236 19.0867 425.222 27.9967 417.296 36.97L415.846 53.97C411.836 53.65 409.856 53.46 405.886 53.14Z" fill="white"/>
<path d="M52.3359 16.23L47.2659 22.1L46.8359 16.63L52.3359 16.23Z" fill="#350D5E"/>
<path d="M55.0158 52.04L49.9458 58.5L49.4758 52.45L55.0158 52.04Z" fill="#350D5E"/>
<path d="M209.916 9.94L207.206 15.71L207.166 9.96L209.916 9.94Z" fill="#350D5E"/>
<path d="M203.656 27.93L200.846 34.01L200.796 27.95L203.656 27.93Z" fill="#350D5E"/>
<path d="M210.126 45.84L207.426 52.21L207.376 45.86L210.126 45.84Z" fill="#350D5E"/>
<path d="M237.246 0.0599976L234.976 5.69H237.196L237.246 0.0599976Z" fill="#340E5E"/>
<path d="M246.856 45.92L244.746 52.3V45.92H246.856Z" fill="#340E5E"/>
<path d="M288.736 0.820007L287.306 6.50001L288.536 6.54001L288.736 0.820007Z" fill="#340E5E"/>
<path d="M333.276 48.46L332.596 54.88L332.896 48.44L333.276 48.46Z" fill="#340E5E"/>
<path d="M347.006 49.17L346.536 55.6L346.766 49.17H347.006Z" fill="#340E5E"/>
<path d="M372.936 50.73L372.906 57.19L373.346 50.76L372.936 50.73Z" fill="#340E5E"/>
<path d="M405.886 53.15L406.396 59.58L406.916 53.23L405.886 53.15Z" fill="#340E5E"/>
<path d="M387.966 5.82001L388.186 11.54L391.826 11.8L387.966 5.82001Z" fill="#340E5E"/>
<path d="M436.546 15.49L441.346 10.27L442.436 16.05L436.546 15.49Z" fill="#340E5E"/>
</svg>
